<?xml version="1.0" encoding="utf-8"?>
<!-- Generator: Adobe Illustrator 18.1.1, SVG Export Plug-In . SVG Version: 6.00 Build 0)  -->
<!DOCTYPE svg PUBLIC "-//W3C//DTD SVG 1.1//EN" "http://www.w3.org/Graphics/SVG/1.1/DTD/svg11.dtd">
<svg version="1.1" id="Layer_1" xmlns="http://www.w3.org/2000/svg" xmlns:xlink="http://www.w3.org/1999/xlink" x="0px" y="0px"
	 viewBox="0 0 794.1 237.9" enable-background="new 0 0 794.1 237.9" xml:space="preserve">
<g>
	<path d="M291.1,96c-7.9-12-20.3-20-37-24.2l-84.5-20.8l-43.5,174.8l34.9-30.4l7.4-29.1l59,14.5c18.9,4.6,34.3,2.6,46.1-6
		c11.9-8.7,19.6-20.4,23.2-35.1C300.9,122.6,299,108,291.1,96z M270.8,133.5c-3,12.3-8.7,20.1-17,23.2c-8.3,3.1-18.2,3.3-29.6,0.5
		l-50.5-12.4l16.1-65.4l50.5,12.4c9.8,2.4,17.2,5.6,22.1,9.7C271.4,108.9,274.2,119.6,270.8,133.5z"/>
	<path d="M263.9,47.1c-8.4-12.6-21.4-21.1-39-25.4L136,0L91.9,180.5c-3.3,11.9-6.7,20.1-10.1,24.4c-6.8,8.8-17.4,11.4-31.8,7.9
		c-10.2-2.5-17.1-7.1-20.6-13.7c-3.5-6.6-3.9-15.4-1.3-26.2l-25.3-6.2c-5,20.7-3.3,36.3,5.3,47s20.4,17.8,35.3,21.4
		c25.8,6.3,45.4,2.1,58.8-12.6c7.2-8.1,12.9-20.5,17-37.3l15.5-63.4l0.2-0.5l62.1,15.2c19.9,4.9,36.1,2.7,48.5-6.4
		c12.5-9.1,20.6-21.5,24.4-37C274.3,75,272.3,59.7,263.9,47.1z M242.6,86.6c-3.2,13-9.1,21.1-17.9,24.5c-8.7,3.3-19.1,3.5-31.1,0.6
		l-53.2-13l16.8-68.9l53.2,13c10.3,2.5,18.1,5.9,23.3,10.1C243.2,60.7,246.2,71.9,242.6,86.6z"/>
	<g>
		<path d="M188,190.9c-0.8,3.1-2.2,5.2-4.3,6.5c-2.1,1.2-4.7,1.4-7.9,0.6l-5.2-1.3l4.8-18.8l5.7,1.5c2.9,0.7,5,2.1,6.2,4.2
			C188.5,185.6,188.8,188,188,190.9z M185.7,190.4c0.6-2.4,0.5-4.4-0.4-6c-0.9-1.6-2.6-2.6-5-3.3l-3.2-0.8l-3.8,15l2.7,0.7
			c2.6,0.7,4.7,0.5,6.4-0.4S185,192.9,185.7,190.4z"/>
		<path d="M193,202.6c-2.1-0.5-3.6-1.6-4.4-3.2c-0.9-1.6-1-3.5-0.5-5.7c0.6-2.3,1.6-3.9,3-5c1.5-1,3.1-1.3,5-0.9
			c1.8,0.4,3,1.4,3.7,2.8c0.7,1.4,0.9,3.1,0.4,5l-0.3,1.3l-9.7-2.5c-0.4,1.7-0.3,3,0.3,4.1c0.6,1.1,1.6,1.8,3,2.1
			c1.5,0.4,3.1,0.5,4.7,0.2l-0.5,1.9c-0.8,0.1-1.6,0.2-2.3,0.2S193.9,202.9,193,202.6z M195.6,189.7c-1.1-0.3-2.1-0.1-3,0.4
			c-0.9,0.6-1.5,1.5-2,2.8l7.4,1.9c0.3-1.3,0.3-2.4-0.1-3.3S196.7,190,195.6,189.7z"/>
		<path d="M209.5,202.5c-0.3,1.3-1.1,2.2-2.2,2.7c-1.2,0.5-2.6,0.5-4.4,0c-1.9-0.5-3.2-1.1-4.1-2l0.5-2c0.6,0.5,1.2,1,2,1.4
			c0.7,0.4,1.4,0.7,2.2,0.9c1.1,0.3,2,0.3,2.7,0.1c0.7-0.2,1.1-0.7,1.3-1.4c0.1-0.5,0-1.1-0.4-1.6c-0.4-0.5-1.2-1.2-2.4-2.1
			c-1.2-0.8-2-1.5-2.5-2s-0.8-1-0.9-1.6c-0.2-0.5-0.1-1.1,0-1.8c0.3-1.1,1-1.9,2.1-2.4c1.1-0.4,2.5-0.4,4.1,0
			c1.5,0.4,2.9,1.1,4.2,2.1l-1.2,1.5c-1.3-0.9-2.5-1.6-3.6-1.8c-1-0.3-1.8-0.3-2.4-0.1c-0.6,0.2-1,0.6-1.1,1.1c-0.1,0.4-0.1,0.7,0,1
			s0.4,0.6,0.7,1s1.1,0.9,2.2,1.7c1.5,1,2.5,1.9,2.9,2.7S209.7,201.6,209.5,202.5z"/>
		<path d="M214,188.7c0.1-0.5,0.3-0.8,0.6-1c0.3-0.2,0.6-0.2,1-0.1c0.3,0.1,0.6,0.3,0.8,0.6c0.2,0.3,0.2,0.7,0.1,1.2
			c-0.1,0.5-0.3,0.8-0.6,1c-0.3,0.2-0.6,0.2-1,0.1c-0.4-0.1-0.6-0.3-0.8-0.6C213.9,189.6,213.9,189.2,214,188.7z M211.7,207.2
			l-2.1-0.5l3.6-14.1l2.1,0.5L211.7,207.2z"/>
		<path d="M229,196.6l-0.3,1.3l-2.7-0.4c0.2,0.4,0.3,0.8,0.3,1.3c0.1,0.5,0,1.1-0.1,1.7c-0.4,1.4-1.1,2.4-2.3,2.9
			c-1.1,0.6-2.5,0.7-4.2,0.2c-0.4-0.1-0.8-0.2-1.2-0.4c-1,0.2-1.6,0.7-1.8,1.5c-0.1,0.4,0,0.7,0.3,1c0.3,0.3,0.8,0.5,1.6,0.7
			l2.5,0.6c1.5,0.4,2.6,1,3.3,1.9c0.7,0.8,0.8,1.9,0.5,3.1c-0.4,1.6-1.3,2.6-2.8,3.1c-1.5,0.5-3.4,0.4-5.8-0.2
			c-1.8-0.5-3.2-1.2-4-2.1c-0.8-0.9-1.1-2-0.8-3.3c0.2-0.9,0.7-1.5,1.4-2c0.7-0.5,1.6-0.7,2.6-0.7c-0.3-0.3-0.6-0.6-0.7-1
			c-0.2-0.4-0.2-0.8-0.1-1.3c0.1-0.5,0.4-0.9,0.8-1.2c0.4-0.3,0.9-0.6,1.6-0.8c-0.7-0.5-1.1-1.1-1.4-2c-0.3-0.8-0.3-1.7-0.1-2.6
			c0.4-1.5,1.2-2.6,2.3-3.2c1.1-0.6,2.6-0.7,4.2-0.3c0.7,0.2,1.4,0.4,1.9,0.8L229,196.6z M213.6,210.1c-0.2,0.8,0,1.4,0.5,2
			c0.5,0.6,1.4,1,2.6,1.3c1.8,0.5,3.2,0.5,4.2,0.2s1.6-0.9,1.8-1.8c0.2-0.8,0.1-1.3-0.3-1.8c-0.4-0.4-1.2-0.8-2.5-1.1l-2.6-0.7
			c-1-0.2-1.8-0.2-2.4,0.1C214.3,208.7,213.8,209.3,213.6,210.1z M217.8,198.5c-0.3,1-0.2,1.8,0.3,2.4c0.4,0.6,1.1,1.1,2.1,1.3
			c2.1,0.5,3.4-0.2,3.9-2.2c0.5-2.1-0.2-3.4-2.3-4c-1-0.3-1.8-0.2-2.5,0.2C218.5,196.7,218.1,197.5,217.8,198.5z"/>
		<path d="M235.6,213.2l2.3-9.1c0.3-1.1,0.3-2.1-0.1-2.8c-0.4-0.7-1.1-1.2-2.2-1.5c-1.5-0.4-2.7-0.3-3.5,0.4c-0.9,0.6-1.6,1.8-2,3.7
			l-1.9,7.4l-2.1-0.5l3.6-14.1l1.7,0.4l-0.1,2l0.1,0c0.6-0.6,1.4-1,2.2-1.1s1.8-0.1,2.8,0.1c1.7,0.4,2.9,1.2,3.5,2.2
			c0.6,1,0.7,2.4,0.3,4.2l-2.3,9.2L235.6,213.2z"/>
		<path d="M249.7,212.8c-0.3,1.3-1.1,2.2-2.2,2.7c-1.2,0.5-2.6,0.5-4.4,0c-1.9-0.5-3.2-1.1-4.1-2l0.5-2c0.6,0.5,1.2,1,2,1.4
			c0.7,0.4,1.4,0.7,2.2,0.9c1.1,0.3,2,0.3,2.7,0.1c0.7-0.2,1.1-0.7,1.3-1.4c0.1-0.5,0-1.1-0.4-1.6c-0.4-0.5-1.2-1.2-2.4-2.1
			c-1.2-0.8-2-1.5-2.5-2s-0.8-1-0.9-1.6s-0.1-1.1,0-1.8c0.3-1.1,1-1.9,2.1-2.4c1.1-0.4,2.5-0.4,4.1,0c1.5,0.4,2.9,1.1,4.2,2.1
			l-1.2,1.5c-1.3-0.9-2.5-1.6-3.6-1.8c-1-0.3-1.8-0.3-2.4-0.1s-1,0.6-1.1,1.1c-0.1,0.4-0.1,0.7,0,1c0.1,0.3,0.4,0.6,0.7,1
			s1.1,0.9,2.2,1.7c1.5,1,2.5,1.9,2.9,2.7C249.9,211,250,211.8,249.7,212.8z"/>
	</g>
</g>
<rect x="334.7" y="33.5" width="2.9" height="172.7"/>
<g>
	<path d="M382.3,155.8c-2.5,0-4.5-0.4-6-1.1v-5.9c1.9,0.5,3.9,0.8,6,0.8c2.7,0,4.7-0.8,6.1-2.4c1.4-1.6,2.1-3.9,2.1-7V81.2h6.9v58.5
		c0,5.1-1.3,9.1-3.9,11.9C390.9,154.4,387.2,155.8,382.3,155.8z"/>
	<path d="M450.5,98.4c0,6-2,10.6-6.1,13.8c-4.1,3.2-9.9,4.8-17.5,4.8h-7v23.2H413V81.2h15.3C443.1,81.2,450.5,86.9,450.5,98.4z
		 M419.9,111.1h6.2c6.1,0,10.5-1,13.2-3c2.7-2,4.1-5.1,4.1-9.5c0-3.9-1.3-6.8-3.8-8.7c-2.6-1.9-6.5-2.9-12-2.9h-7.7V111.1z"/>
	<path d="M500.3,98.4c0,6-2,10.6-6.1,13.8c-4.1,3.2-9.9,4.8-17.5,4.8h-7v23.2h-6.9V81.2h15.3C493,81.2,500.3,86.9,500.3,98.4z
		 M469.7,111.1h6.2c6.1,0,10.5-1,13.2-3c2.7-2,4.1-5.1,4.1-9.5c0-3.9-1.3-6.8-3.8-8.7c-2.6-1.9-6.5-2.9-12-2.9h-7.7V111.1z"/>
	<path d="M541.9,134.3h-0.4c-3.1,4.5-7.7,6.8-13.9,6.8c-5.8,0-10.3-2-13.5-5.9c-3.2-4-4.8-9.6-4.8-16.9s1.6-13,4.9-17
		c3.2-4,7.7-6.1,13.5-6.1c6,0,10.6,2.2,13.8,6.5h0.5l-0.3-3.2l-0.2-3.1v-18h6.7v62.9h-5.5L541.9,134.3z M528.4,135.5
		c4.6,0,7.9-1.2,10-3.7c2.1-2.5,3.1-6.5,3.1-12.1v-1.4c0-6.3-1-10.8-3.1-13.4c-2.1-2.7-5.4-4-10-4c-3.9,0-6.9,1.5-9,4.6
		c-2.1,3.1-3.1,7.4-3.1,13c0,5.7,1,9.9,3.1,12.8S524.4,135.5,528.4,135.5z"/>
	<path d="M581.2,141.1c-6.5,0-11.7-2-15.5-6c-3.8-4-5.7-9.5-5.7-16.6c0-7.1,1.8-12.8,5.3-17c3.5-4.2,8.2-6.3,14.2-6.3
		c5.6,0,9.9,1.8,13.2,5.5c3.2,3.7,4.9,8.5,4.9,14.5v4.2h-30.5c0.1,5.2,1.4,9.2,3.9,11.8c2.5,2.7,6,4,10.5,4c4.8,0,9.5-1,14.1-3v6
		c-2.4,1-4.6,1.8-6.7,2.2C586.7,140.8,584.2,141.1,581.2,141.1z M579.3,100.8c-3.6,0-6.4,1.2-8.5,3.5c-2.1,2.3-3.4,5.5-3.7,9.6h23.2
		c0-4.2-0.9-7.5-2.8-9.7C585.5,101.9,582.8,100.8,579.3,100.8z"/>
	<path d="M637.5,128.2c0,4.1-1.5,7.3-4.6,9.5c-3.1,2.2-7.4,3.4-12.9,3.4c-5.9,0-10.5-0.9-13.7-2.8v-6.2c2.1,1.1,4.4,1.9,6.9,2.5
		c2.4,0.6,4.8,0.9,7.1,0.9c3.5,0,6.2-0.6,8.1-1.7c1.9-1.1,2.8-2.8,2.8-5.1c0-1.7-0.7-3.2-2.2-4.4c-1.5-1.2-4.4-2.7-8.8-4.3
		c-4.1-1.5-7.1-2.9-8.8-4s-3-2.4-3.9-3.9c-0.8-1.5-1.3-3.2-1.3-5.2c0-3.6,1.5-6.5,4.4-8.6c2.9-2.1,7-3.1,12.1-3.1
		c4.8,0,9.4,1,14,2.9l-2.4,5.5c-4.4-1.8-8.5-2.7-12.1-2.7c-3.2,0-5.6,0.5-7.2,1.5c-1.6,1-2.4,2.4-2.4,4.1c0,1.2,0.3,2.2,0.9,3
		s1.6,1.6,2.9,2.4c1.3,0.8,3.9,1.8,7.8,3.3c5.3,1.9,8.8,3.8,10.7,5.8C636.6,122.8,637.5,125.2,637.5,128.2z"/>
	<path d="M647.8,83.9c0-1.5,0.4-2.7,1.1-3.4c0.8-0.7,1.7-1.1,2.8-1.1c1.1,0,2,0.4,2.8,1.1c0.8,0.7,1.2,1.8,1.2,3.4s-0.4,2.6-1.2,3.4
		c-0.8,0.7-1.7,1.1-2.8,1.1c-1.1,0-2.1-0.4-2.8-1.1C648.2,86.6,647.8,85.5,647.8,83.9z M655.1,140.3h-6.7V96h6.7V140.3z"/>
	<path d="M705.6,96v4.2l-8.2,1c0.8,0.9,1.4,2.2,2,3.7c0.6,1.5,0.9,3.2,0.9,5.2c0,4.3-1.5,7.8-4.4,10.4c-3,2.6-7,3.9-12.2,3.9
		c-1.3,0-2.6-0.1-3.7-0.3c-2.9,1.5-4.3,3.4-4.3,5.7c0,1.2,0.5,2.1,1.5,2.7c1,0.6,2.7,0.9,5.1,0.9h7.8c4.8,0,8.5,1,11.1,3
		c2.6,2,3.9,5,3.9,8.8c0,4.9-2,8.6-5.9,11.2c-3.9,2.6-9.7,3.9-17.2,3.9c-5.8,0-10.3-1.1-13.4-3.2c-3.1-2.2-4.7-5.2-4.7-9.1
		c0-2.7,0.9-5,2.6-7c1.7-2,4.2-3.3,7.3-4c-1.1-0.5-2.1-1.3-2.8-2.4c-0.8-1.1-1.2-2.3-1.2-3.8c0-1.6,0.4-3,1.3-4.2
		c0.9-1.2,2.2-2.4,4.1-3.5c-2.3-0.9-4.2-2.5-5.6-4.8c-1.4-2.3-2.2-4.9-2.2-7.8c0-4.9,1.5-8.6,4.4-11.2c2.9-2.6,7-3.9,12.4-3.9
		c2.3,0,4.4,0.3,6.3,0.8H705.6z M670.3,147.7c0,2.4,1,4.2,3,5.5c2,1.2,4.9,1.9,8.7,1.9c5.6,0,9.8-0.8,12.5-2.5
		c2.7-1.7,4.1-4,4.1-6.9c0-2.4-0.7-4.1-2.2-5c-1.5-0.9-4.3-1.4-8.4-1.4h-8c-3,0-5.4,0.7-7.1,2.2S670.3,145,670.3,147.7z
		 M673.9,110.1c0,3.1,0.9,5.4,2.6,7c1.8,1.6,4.2,2.4,7.3,2.4c6.5,0,9.8-3.2,9.8-9.5c0-6.7-3.3-10-9.9-10c-3.2,0-5.6,0.8-7.3,2.5
		C674.7,104.3,673.9,106.8,673.9,110.1z"/>
	<path d="M745,140.3v-28.7c0-3.6-0.8-6.3-2.5-8.1s-4.2-2.7-7.7-2.7c-4.6,0-8,1.3-10.2,3.8s-3.2,6.6-3.2,12.4v23.2h-6.7V96h5.5
		l1.1,6.1h0.3c1.4-2.2,3.3-3.9,5.8-5.1s5.2-1.8,8.3-1.8c5.3,0,9.4,1.3,12,3.9c2.7,2.6,4,6.7,4,12.4v28.9H745z"/>
	<path d="M794.1,128.2c0,4.1-1.5,7.3-4.6,9.5c-3.1,2.2-7.4,3.4-12.9,3.4c-5.9,0-10.5-0.9-13.7-2.8v-6.2c2.1,1.1,4.4,1.9,6.9,2.5
		c2.4,0.6,4.8,0.9,7.1,0.9c3.5,0,6.2-0.6,8.1-1.7c1.9-1.1,2.8-2.8,2.8-5.1c0-1.7-0.7-3.2-2.2-4.4c-1.5-1.2-4.4-2.7-8.8-4.3
		c-4.1-1.5-7.1-2.9-8.8-4s-3-2.4-3.9-3.9c-0.8-1.5-1.3-3.2-1.3-5.2c0-3.6,1.5-6.5,4.4-8.6c2.9-2.1,7-3.1,12.1-3.1
		c4.8,0,9.4,1,14,2.9l-2.4,5.5c-4.4-1.8-8.5-2.7-12.1-2.7c-3.2,0-5.6,0.5-7.2,1.5c-1.6,1-2.4,2.4-2.4,4.1c0,1.2,0.3,2.2,0.9,3
		s1.6,1.6,2.9,2.4c1.3,0.8,3.9,1.8,7.8,3.3c5.3,1.9,8.8,3.8,10.7,5.8C793.2,122.8,794.1,125.2,794.1,128.2z"/>
</g>
</svg>
